<svg width="13" height="14" viewBox="0 0 13 14" fill="none" xmlns="http://www.w3.org/2000/svg">
<g clip-path="url(#clip0_12_710)">
<path d="M6.40112 4.78274L8.26206 6.78683L8.27093 6.68185C8.27093 5.6289 7.47634 4.77319 6.4986 4.77319L6.40112 4.78274Z" fill="#ABABAB"/>
<path d="M6.49849 3.50069C8.12903 3.50069 9.45237 4.92583 9.45237 6.6818C9.45237 7.09216 9.37558 7.48343 9.24266 7.84289L10.9707 9.70383C11.8627 8.90219 12.5658 7.86517 13 6.6818C11.975 3.88881 9.45534 1.91016 6.49852 1.91016C5.67142 1.91016 4.8798 2.0692 4.14429 2.3555L5.42036 3.72654C5.75411 3.58658 6.11744 3.50069 6.49849 3.50069Z" fill="#ABABAB"/>
<path d="M0.590766 1.76711L1.93773 3.21769L2.20654 3.50718C1.23177 4.3279 0.460804 5.41903 0 6.6819C1.02205 9.4749 3.54465 11.4535 6.49853 11.4535C7.41424 11.4535 8.28858 11.2627 9.08909 10.9159L9.34018 11.1863L11.0623 13.0441L11.8155 12.2361L1.344 0.955933L0.590766 1.76711ZM3.85777 5.28223L4.77051 6.26519C4.74393 6.40199 4.72621 6.53875 4.72621 6.6819C4.72621 7.73486 5.52079 8.59056 6.49853 8.59056C6.63146 8.59056 6.75848 8.57147 6.88254 8.54284L7.79529 9.5258C7.40242 9.73575 6.96526 9.86301 6.49853 9.86301C4.86799 9.86301 3.54465 8.43787 3.54465 6.6819C3.54465 6.1793 3.66281 5.70849 3.85777 5.28223Z" fill="#ABABAB"/>
</g>
<defs>
<clipPath id="clip0_12_710">
<rect width="13" height="14" fill="white"/>
</clipPath>
</defs>
</svg>
