<svg width="13" height="17" viewBox="0 0 13 17" fill="none" xmlns="http://www.w3.org/2000/svg">
<g clip-path="url(#clip0_0_6)">
<path d="M1.10935 2.67651H11.5125C12.1242 2.67651 12.6218 3.34679 12.6218 4.17065V12.8294C12.6218 13.6533 12.1242 14.3236 11.5125 14.3236H1.10935C0.497665 14.3236 1.62125e-05 13.6533 1.62125e-05 12.8294V4.17065C1.62125e-05 3.34679 0.497665 2.67651 1.10935 2.67651ZM1.25414 3.67261L1.4022 3.83866L5.87078 8.85037C6.12583 9.13638 6.49606 9.13638 6.75106 8.85037L11.2196 3.83866L11.3677 3.67261H1.25414ZM11.8823 4.39172L8.24137 8.47514L11.8823 11.7388V4.39172ZM1.10935 13.3275H11.5125C11.6912 13.3275 11.8406 13.1559 11.8748 12.9287L7.64839 9.14017L7.22428 9.61583C6.95966 9.9126 6.63527 10.061 6.3109 10.061C5.98653 10.061 5.66216 9.9126 5.39752 9.61583L4.9734 9.14017L0.746971 12.9286C0.781237 13.1559 0.930677 13.3275 1.10935 13.3275ZM0.739575 11.7388L4.38047 8.47517L0.739575 4.39172V11.7388Z" fill="#000842"/>
</g>
<defs>
<clipPath id="clip0_0_6">
<rect width="12.6218" height="17" fill="white" transform="matrix(-1 0 0 1 12.6218 0)"/>
</clipPath>
</defs>
</svg>
